<svg xmlns="http://www.w3.org/2000/svg" xmlns:xlink="http://www.w3.org/1999/xlink" width="500" zoomAndPan="magnify" viewBox="0 0 375 374.999991" height="500" preserveAspectRatio="xMidYMid meet" version="1.0"><defs><g/><clipPath id="2cf0b60167"><path d="M 0 115 L 188 115 L 188 280.382812 L 0 280.382812 Z M 0 115 " clip-rule="nonzero"/></clipPath><clipPath id="7347233065"><path d="M 187 28.382812 L 375 28.382812 L 375 194 L 187 194 Z M 187 28.382812 " clip-rule="nonzero"/></clipPath></defs><rect x="-37.5" width="450" fill="#ffffff" y="-37.499999" height="449.999989" fill-opacity="1"/><rect x="-37.5" width="450" fill="#ffffff" y="-37.499999" height="449.999989" fill-opacity="1"/><g clip-path="url(#2cf0b60167)"><path fill="#54afe6" d="M 126.269531 232.105469 L 126.269531 254.910156 L 22.898438 206.921875 L 22.898438 188.417969 L 126.269531 140.429688 L 126.269531 163.242188 L 48.097656 197.453125 L 48.097656 197.886719 Z M 187.660156 115.082031 L 14.792969 115.082031 C 6.632812 115.082031 0.015625 121.695312 0.015625 129.851562 L 0.015625 265.492188 C 0.015625 273.644531 6.632812 280.257812 14.792969 280.257812 L 139.671875 280.257812 L 187.660156 115.082031 " fill-opacity="1" fill-rule="nonzero"/></g><g clip-path="url(#7347233065)"><path fill="#393536" d="M 352.140625 120.949219 L 248.773438 168.292969 L 248.773438 145.480469 L 328.667969 111.265625 L 328.667969 110.835938 L 248.773438 76.617188 L 248.773438 53.808594 L 352.140625 101.152344 Z M 235.652344 28.464844 L 187.660156 193.636719 L 360.25 193.636719 C 368.410156 193.636719 375.027344 187.027344 375.027344 178.867188 L 375.027344 43.230469 C 375.027344 35.074219 368.410156 28.464844 360.25 28.464844 L 235.652344 28.464844 " fill-opacity="1" fill-rule="nonzero"/></g><g fill="#393536" fill-opacity="1"><g transform="translate(52.848028, 342.514085)"><g><path d="M 20.71875 -13.640625 C 19.957031 -13.722656 18.976562 -13.765625 17.78125 -13.765625 L 10.578125 -13.765625 L 10.578125 0 L 4.078125 0 L 4.078125 -31.734375 C 4.503906 -31.703125 4.992188 -31.675781 5.546875 -31.65625 L 7.3125 -31.609375 C 8.507812 -31.578125 9.757812 -31.5625 11.0625 -31.5625 C 14.957031 -31.5625 18.675781 -31.625 22.21875 -31.75 C 22.039062 -30.363281 21.953125 -28.507812 21.953125 -26.1875 C 21.953125 -25.925781 21.96875 -25.734375 22 -25.609375 L 21.953125 -25.53125 C 21.117188 -25.769531 19.945312 -25.890625 18.4375 -25.890625 L 10.578125 -25.890625 L 10.578125 -19.375 L 17.515625 -19.375 C 19.253906 -19.375 20.300781 -19.421875 20.65625 -19.515625 Z M 20.71875 -13.640625 "/></g></g></g><g fill="#393536" fill-opacity="1"><g transform="translate(77.103841, 342.514085)"><g><path d="M 14.28125 -12.265625 C 13.8125 -12.234375 13.304688 -12.21875 12.765625 -12.21875 C 12.234375 -12.21875 11.4375 -12.257812 10.375 -12.34375 L 10.375 0 L 4.078125 0 L 4.078125 -31.734375 C 6.296875 -32.015625 9.019531 -32.15625 12.25 -32.15625 C 16.644531 -32.15625 19.921875 -31.34375 22.078125 -29.71875 C 24.242188 -28.101562 25.328125 -25.601562 25.328125 -22.21875 C 25.328125 -19.59375 24.335938 -17.34375 22.359375 -15.46875 C 21.710938 -14.875 20.96875 -14.351562 20.125 -13.90625 L 24.96875 -3.703125 C 25.914062 -1.597656 26.644531 -0.347656 27.15625 0.046875 L 27.03125 0.171875 C 25.5 -0.0859375 23.085938 -0.0820312 19.796875 0.1875 Z M 12.703125 -26.5625 C 11.890625 -26.5625 11.113281 -26.519531 10.375 -26.4375 L 10.375 -17.375 C 11.144531 -17.257812 12.050781 -17.203125 13.09375 -17.203125 C 14.144531 -17.203125 15.023438 -17.289062 15.734375 -17.46875 C 16.441406 -17.65625 17.0625 -17.941406 17.59375 -18.328125 C 18.707031 -19.160156 19.265625 -20.414062 19.265625 -22.09375 C 19.265625 -23.769531 18.679688 -24.953125 17.515625 -25.640625 C 16.421875 -26.253906 14.816406 -26.5625 12.703125 -26.5625 Z M 12.703125 -26.5625 "/></g></g></g><g fill="#393536" fill-opacity="1"><g transform="translate(105.41812, 342.514085)"><g><path d="M 6.671875 -3.75 C 5.234375 -5.125 4.097656 -6.773438 3.265625 -8.703125 C 2.429688 -10.640625 2.015625 -12.757812 2.015625 -15.0625 C 2.015625 -17.363281 2.398438 -19.539062 3.171875 -21.59375 C 3.953125 -23.65625 5.0625 -25.46875 6.5 -27.03125 C 7.9375 -28.601562 9.675781 -29.847656 11.71875 -30.765625 C 13.757812 -31.691406 16.046875 -32.15625 18.578125 -32.15625 C 22.953125 -32.15625 26.632812 -30.78125 29.625 -28.03125 C 32.820312 -25.082031 34.421875 -21.109375 34.421875 -16.109375 C 34.421875 -11.273438 32.773438 -7.25 29.484375 -4.03125 C 27.453125 -2.050781 25.035156 -0.691406 22.234375 0.046875 C 20.859375 0.410156 19.25 0.59375 17.40625 0.59375 C 15.5625 0.59375 13.671875 0.210938 11.734375 -0.546875 C 9.796875 -1.304688 8.109375 -2.375 6.671875 -3.75 Z M 8.609375 -15.375 C 8.609375 -13.90625 8.851562 -12.550781 9.34375 -11.3125 C 9.84375 -10.082031 10.523438 -9.023438 11.390625 -8.140625 C 13.242188 -6.273438 15.625 -5.34375 18.53125 -5.34375 C 21.300781 -5.34375 23.523438 -6.234375 25.203125 -8.015625 C 26.910156 -9.867188 27.765625 -12.394531 27.765625 -15.59375 C 27.765625 -18.601562 26.953125 -21.113281 25.328125 -23.125 C 23.566406 -25.269531 21.160156 -26.34375 18.109375 -26.34375 C 15.148438 -26.34375 12.800781 -25.253906 11.0625 -23.078125 C 9.425781 -21.035156 8.609375 -18.46875 8.609375 -15.375 Z M 8.609375 -15.375 "/></g></g></g><g fill="#393536" fill-opacity="1"><g transform="translate(141.849315, 342.514085)"><g><path d="M 4.296875 0 C 4.390625 -0.539062 4.4375 -1.125 4.4375 -1.75 L 4.4375 -31.5625 L 9.1875 -31.5625 L 21.765625 -11.765625 L 21.765625 -29.953125 C 21.765625 -30.828125 21.6875 -31.363281 21.53125 -31.5625 L 27.9375 -31.5625 C 27.851562 -30.9375 27.8125 -30.242188 27.8125 -29.484375 L 27.8125 0 L 22.875 0 L 10.484375 -19.015625 L 10.484375 0 Z M 4.296875 0 "/></g></g></g><g fill="#393536" fill-opacity="1"><g transform="translate(174.103384, 342.514085)"><g><path d="M 15.46875 0.140625 C 14.71875 0.046875 12.765625 0 9.609375 0 L 8.859375 0 L 8.859375 -26.25 L 4.15625 -26.25 C 2.757812 -26.25 1.9375 -26.175781 1.6875 -26.03125 C 1.4375 -25.894531 1.238281 -25.769531 1.09375 -25.65625 L 1.015625 -25.6875 L 1.015625 -31.75 L 1.09375 -31.828125 C 1.613281 -31.648438 3.019531 -31.5625 5.3125 -31.5625 L 20.203125 -31.5625 C 21.585938 -31.5625 22.40625 -31.632812 22.65625 -31.78125 C 22.914062 -31.925781 23.117188 -32.050781 23.265625 -32.15625 L 23.328125 -32.140625 L 23.328125 -26.0625 L 23.265625 -25.984375 C 22.742188 -26.160156 21.332031 -26.25 19.03125 -26.25 L 15.46875 -26.25 Z M 15.46875 0.140625 "/></g></g></g><g fill="#393536" fill-opacity="1"><g transform="translate(198.454131, 342.514085)"><g><path d="M 7.171875 -11.875 C 5.960938 -11.875 4.976562 -11.832031 4.21875 -11.75 L 4.296875 -17.609375 C 4.660156 -17.515625 5.703125 -17.46875 7.421875 -17.46875 L 16.65625 -17.46875 C 18.394531 -17.46875 19.441406 -17.515625 19.796875 -17.609375 L 19.859375 -11.75 C 19.109375 -11.832031 18.128906 -11.875 16.921875 -11.875 Z M 7.171875 -11.875 "/></g></g></g><g fill="#393536" fill-opacity="1"><g transform="translate(222.567542, 342.514085)"><g><path d="M 19.96875 -5.703125 C 20.945312 -5.703125 21.625 -5.796875 22 -5.984375 L 22.09375 -5.953125 L 21.859375 0 L 4.078125 0 L 4.078125 -31.734375 C 4.503906 -31.703125 4.976562 -31.675781 5.5 -31.65625 L 7.171875 -31.609375 C 8.273438 -31.578125 9.476562 -31.5625 10.78125 -31.5625 C 14.40625 -31.5625 17.988281 -31.625 21.53125 -31.75 C 21.351562 -30.363281 21.265625 -28.507812 21.265625 -26.1875 C 21.265625 -25.925781 21.28125 -25.734375 21.3125 -25.609375 L 21.265625 -25.53125 C 20.441406 -25.769531 19.269531 -25.890625 17.75 -25.890625 L 10.28125 -25.890625 L 10.28125 -19.84375 L 15.90625 -19.84375 C 17.644531 -19.84375 18.6875 -19.890625 19.03125 -19.984375 L 19.109375 -14.125 C 18.347656 -14.195312 17.363281 -14.234375 16.15625 -14.234375 L 10.28125 -14.234375 L 10.28125 -5.703125 Z M 19.96875 -5.703125 "/></g></g></g><g fill="#393536" fill-opacity="1"><g transform="translate(246.918289, 342.514085)"><g><path d="M 4.296875 0 C 4.390625 -0.539062 4.4375 -1.125 4.4375 -1.75 L 4.4375 -31.5625 L 9.1875 -31.5625 L 21.765625 -11.765625 L 21.765625 -29.953125 C 21.765625 -30.828125 21.6875 -31.363281 21.53125 -31.5625 L 27.9375 -31.5625 C 27.851562 -30.9375 27.8125 -30.242188 27.8125 -29.484375 L 27.8125 0 L 22.875 0 L 10.484375 -19.015625 L 10.484375 0 Z M 4.296875 0 "/></g></g></g><g fill="#393536" fill-opacity="1"><g transform="translate(279.172358, 342.514085)"><g><path d="M 11.765625 0.59375 C 9.203125 0.59375 6.789062 0.382812 4.53125 -0.03125 L 4.53125 -31.78125 C 6.625 -32.03125 9.050781 -32.15625 11.8125 -32.15625 C 14.570312 -32.15625 17.070312 -31.78125 19.3125 -31.03125 C 21.550781 -30.28125 23.421875 -29.207031 24.921875 -27.8125 C 27.960938 -25.03125 29.484375 -21.128906 29.484375 -16.109375 C 29.484375 -10.492188 27.789062 -6.234375 24.40625 -3.328125 C 21.363281 -0.710938 17.148438 0.59375 11.765625 0.59375 Z M 10.703125 -5.203125 C 11.734375 -5.003906 12.757812 -4.90625 13.78125 -4.90625 C 14.8125 -4.90625 15.921875 -5.109375 17.109375 -5.515625 C 18.296875 -5.921875 19.328125 -6.550781 20.203125 -7.40625 C 22.066406 -9.207031 23 -11.832031 23 -15.28125 C 23 -20.945312 20.929688 -24.429688 16.796875 -25.734375 C 15.441406 -26.160156 13.867188 -26.375 12.078125 -26.375 L 11.4375 -26.375 C 11.195312 -26.375 10.953125 -26.363281 10.703125 -26.34375 Z M 10.703125 -5.203125 "/></g></g></g></svg>